PathFileType	4	(X/Y/Z)	/Users/visionmauri/Downloads/Videos/OAW08-top_Sports2D/OAW08-top_Sports2D_m_person00.trc
DataRate	CameraRate	NumFrames	NumMarkers	Units	OrigDataRate	OrigDataStartFrame	OrigNumFrames
30.0	30.0	6	22	m	30.0	0	2144
Frame#	Time	Hip			RHip			RKnee			RAnkle			RBigToe			RSmallToe			RHeel			LHip			LKnee			LAnkle			LBigToe			LSmallToe			LHeel			Neck			Head			Nose			RShoulder			RElbow			RWrist			LShoulder			LElbow			LWrist			
		X1	Y1	Z1	X2	Y2	Z2	X3	Y3	Z3	X4	Y4	Z4	X5	Y5	Z5	X6	Y6	Z6	X7	Y7	Z7	X8	Y8	Z8	X9	Y9	Z9	X10	Y10	Z10	X11	Y11	Z11	X12	Y12	Z12	X13	Y13	Z13	X14	Y14	Z14	X15	Y15	Z15	X16	Y16	Z16	X17	Y17	Z17	X18	Y18	Z18	X19	Y19	Z19	X20	Y20	Z20	X21	Y21	Z21	X22	Y22	Z22
0	0.0	1.2850913980840448	0.7059081986452413	0.0301	1.2682345782885365	0.6751479612789768	0.0301	1.354370940965034	0.5713052708550728	0.129	1.425783019297275	0.4925468833441909	0.023	1.441576839838634	0.4444320396500837	0.2179	1.4287290109245885	0.44329479561171026	0.1804	1.4430241592327988	0.48271674339773296	-0.0119	1.314006353008424	0.7207966433925509	0.0301	1.4140631843901263	0.6250292650300148	0.129	1.4898105043052696	0.5501720898613088	0.023	1.5231867881155792	0.5091405047007009	0.2179	1.5322231420930106	0.5232787003185678	0.1804	1.4986262443963891	0.5327591501522718	-0.0119	1.158349663968635	0.8439020883416821	0.0008	1.109022090908292	0.9019595029822826	0.0655	1.1522906556631558	0.8494725605563056	0.1076	1.1248994491636841	0.7914396428197135	-0.01275	1.190835793035893	0.6952773034720662	0.0702	1.253134141762607	0.6220266798633659	0.1076	1.2126348516231482	0.8704018038525725	-0.01275	1.3001480432073846	0.7980950458366111	0.0702	1.3670401590363905	0.73117191871559	0.1076
1	0.033348887851920986	1.2854976459805205	0.7055176526512762	0.0301	1.2684588900747038	0.6753222479078074	0.0301	1.3542690027062352	0.5718375899846048	0.129	1.4248905401154812	0.4929647555042591	0.023	1.4415874018867167	0.44438171435097645	0.2179	1.428633032022595	0.4432302409202435	0.1804	1.4428400555103955	0.48248090185977616	-0.0119	1.3143692723396463	0.7208849752334456	0.0301	1.41415305101736	0.6256667412093634	0.129	1.4891483725800654	0.5508013017443133	0.023	1.5231698780026708	0.5089337127146115	0.2179	1.5319799953792275	0.5228984175579539	0.1804	1.4984839970664314	0.5336427318258347	-0.0119	1.1584937146623193	0.8438420977591792	0.0008	1.1078462221038317	0.9043137446398903	0.0655	1.1515171891875828	0.851131736153085	0.1076	1.1247716750123669	0.7915307775234605	-0.01275	1.1904830466497613	0.6960859192265475	0.0702	1.253147514749183	0.6226023995014703	0.1076	1.2130611274198435	0.870331503700687	-0.01275	1.300127790127352	0.798455438857141	0.0702	1.367200381243731	0.7314150528538269	0.1076
2	0.06669777570384197	1.2859501134347093	0.7051077410736437	0.0301	1.2687708113619858	0.6756148802787786	0.0301	1.3537018183788634	0.5726800211146634	0.129	1.4239484258354445	0.4935475923392106	0.023	1.4416205391913002	0.44432151302024664	0.2179	1.4285309332916858	0.44313475436609023	0.1804	1.4424581821478273	0.4825431698886656	-0.0119	1.314128054310606	0.7215849250083669	0.0301	1.4138515722241782	0.6265037776099222	0.129	1.4884383505493457	0.5515979706261189	0.023	1.5231619129074636	0.5087370046123446	0.2179	1.5320657681796355	0.5228133081686155	0.1804	1.4980413604407503	0.5347696058639335	-0.0119	1.1585180336947158	0.8438237123717768	0.0008	1.1060591220214953	0.9067225098400902	0.0655	1.150193529531251	0.8528482426763846	0.1076	1.1247460849678026	0.7915412000327423	-0.01275	1.1899808713272528	0.6966077739283197	0.0702	1.2530122495755476	0.6231228916389261	0.1076	1.2133286722802454	0.8701035579234508	-0.01275	1.3001953729037792	0.7986926201404901	0.0702	1.367246563224139	0.7317353950481812	0.1076
3	0.10004666355576296	1.286125457487687	0.7048713847964241	0.0301	1.2689869072771949	0.6759368567582135	0.0301	1.3528294767178555	0.573320951449326	0.129	1.4233111715638627	0.4941050167952092	0.023	1.4416027608180564	0.44426387380908466	0.2179	1.428357032541611	0.44297882953354517	0.1804	1.4418257299490196	0.48308209778252664	-0.0119	1.3131503304221952	0.7229013468707375	0.0301	1.4131322556121866	0.6272247377368947	0.129	1.4879905746247344	0.5523163742445958	0.023	1.5231877972234367	0.508768776296717	0.2179	1.5323708624260441	0.5230954224903003	0.1804	1.4974258780436287	0.5357063099956454	-0.0119	1.158347364301482	0.8436513947068476	0.0008	1.1047872852025422	0.9073299575959339	0.0655	1.1493269657595182	0.8532706347194471	0.1076	1.1248810796238387	0.7913631517793772	-0.01275	1.1896209301711493	0.6965231809029016	0.0702	1.2526992785515416	0.6232190856095429	0.1076	1.2131853494121565	0.8695050157450323	-0.01275	1.3004083717994326	0.7985844473776892	0.0702	1.3673659621723213	0.7317603819225141	0.1076
4	0.13339555140768394	1.285750008193168	0.7048354490407184	0.0301	1.2687954473829604	0.6762257276134225	0.0301	1.3524697286640686	0.5731780924333822	0.129	1.4231400033481807	0.49439160175302477	0.023	1.4414962680708236	0.44426723776228033	0.2179	1.4280741076484265	0.44279938792782986	0.1804	1.4411951693909486	0.48375528068009616	-0.0119	1.3123646828578692	0.7238443788073499	0.0301	1.4124222308032344	0.6275017726188533	0.129	1.4879752771886336	0.5526973782592907	0.023	1.523224684249513	0.5090858503120224	0.2179	1.5323046601549164	0.5232800074326053	0.1804	1.4969812512673248	0.5361063207028127	-0.0119	1.1580177879793214	0.8432740565034258	0.0008	1.1048562718844743	0.9057632593848556	0.0655	1.1498397551972042	0.8520984479623773	0.1076	1.1251472568624963	0.790959488648015	-0.01275	1.1896650869055234	0.6960466240647956	0.0702	1.252353950665624	0.6228694879308341	0.1076	1.2129588940777003	0.8689267381006215	-0.01275	1.3006835833089045	0.798172933354149	0.0702	1.3676679709950241	0.7314232426265522	0.1076
5	0.16674443925960492	1.2850837468589225	0.7049329076219945	0.0301	1.2680881487315767	0.6766893754363504	0.0301	1.3528139093492284	0.5727524504940089	0.129	1.423202493433503	0.4944564741014557	0.023	1.4415197230259893	0.44448117466174547	0.2179	1.427912425864662	0.44280661557933015	0.1804	1.4408526840238403	0.4840347844703379	-0.0119	1.3124985412830052	0.7238507763345132	0.0301	1.4120355328165959	0.6274799596096573	0.129	1.4881459011787588	0.5528205235315372	0.023	1.5232309304600018	0.5093754228706909	0.2179	1.5317722524378663	0.523038655081272	0.1804	1.4967855108362604	0.5362151737037052	-0.0119	1.157692766775747	0.8432661491601845	0.0008	1.1047588700107327	0.9049858624586397	0.0655	1.1506831729424676	0.8515116747697107	0.1076	1.1253282768597024	0.7905775649415744	-0.01275	1.18991136089267	0.6956784826773669	0.0702	1.252154864071585	0.6225078612978022	0.1076	1.2132104451523233	0.8691914522330759	-0.01275	1.3008463219058293	0.7977762272208492	0.0702	1.3676718609193947	0.7314339836394778	0.1076
